<?xml version="1.0" encoding="utf-8"?>
<!-- Generator: Adobe Illustrator 28.6.0, SVG Export Plug-In . SVG Version: 9.03 Build 54939)  -->
<svg version="1.0"
	 id="svg15365" xmlns:inkscape="http://www.inkscape.org/namespaces/inkscape" xmlns:svg="http://www.w3.org/2000/svg" xmlns:sodipodi="http://sodipodi.sourceforge.net/DTD/sodipodi-0.dtd"
	 xmlns="http://www.w3.org/2000/svg" xmlns:xlink="http://www.w3.org/1999/xlink" x="0px" y="0px" viewBox="0 0 1970.1 1204.7"
	 style="enable-background:new 0 0 1970.1 1204.7;" xml:space="preserve">
<style type="text/css">
	.st0{fill:none;stroke:#FF0000;stroke-width:2.834646e-02;}
</style>
<sodipodi:namedview  bordercolor="#000000" borderopacity="0.25" id="namedview15365" inkscape:current-layer="g15363" inkscape:cx="-3327.6845" inkscape:cy="274.80268" inkscape:deskcolor="#d1d1d1" inkscape:pagecheckerboard="0" inkscape:pageopacity="0.0" inkscape:showpageshadow="2" inkscape:window-height="1371" inkscape:window-maximized="1" inkscape:window-width="2560" inkscape:window-x="0" inkscape:window-y="0" inkscape:zoom="1.8467797" pagecolor="#ffffff">
	</sodipodi:namedview>
<path id="path6131" class="st0" d="M326.5,144l-7.5,22.8l-8.9,22.3l-10.2,21.7l-11.6,21.1v0.1l-12.8,20.3l-14,19.5l-49.1,18.6h-17.5
	h-0.1v-21.9h14.6v-14.6h-14.6v-21.8h0.1h-8.8V121.4h8.8h-0.1V10.6h156v0.1v14.6h-8.2l-0.3,24l-1.8,24l-3.2,23.8l-4.7,23.6l-6.1,23.2
	"/>
<path id="path14033" class="st0" d="M138.3,431.6l8.9-22.3v-0.1l7.5-22.8l6.1-23.3l4.7-23.6l3.2-23.8l1.8-24l0.3-24.1v0.1v-30.4h7.6
	V10.7H13.9v226.6h8.8h-0.1v259.1h14.6V511H22.6v21.9h17.5l49.5-18.6h0.1l14-19.5l12.8-20.3v-0.1l11.6-21.1l10.2-21.8"/>
</svg>
